<?xml version="1.0" encoding="UTF-8"?>
<!DOCTYPE svg PUBLIC "-//W3C//DTD SVG 1.1//EN" "http://www.w3.org/Graphics/SVG/1.1/DTD/svg11.dtd">
<!-- Creator: CorelDRAW 2017 -->
<svg xmlns="http://www.w3.org/2000/svg" xml:space="preserve" width="210mm" height="297mm" version="1.1" style="shape-rendering:geometricPrecision; text-rendering:geometricPrecision; image-rendering:optimizeQuality; fill-rule:evenodd; clip-rule:evenodd"
viewBox="0 0 21000 29700"
 xmlns:xlink="http://www.w3.org/1999/xlink">
 <defs>
  <style type="text/css">
   <![CDATA[
    .fil0 {fill:gold}
   ]]>
  </style>
 </defs>
 <g id="Слой_x0020_1">
  <metadata id="CorelCorpID_0Corel-Layer"/>
  <g id="_2660086550880">
   <g id="svgg">
    <g>
     <path id="path0" class="fil0" d="M9977.92 16213.68l34.38 0.44 0.01 881.79c0.01,953.55 -0.48,894.17 7.83,934.32 12.39,59.84 49.05,127.85 90.49,167.87 18.9,18.26 21.77,20.77 35.31,30.95 7.64,5.75 14.75,11.17 15.77,12.04 1.03,0.87 2.27,1.58 2.75,1.58 0.49,0 5.56,3.02 11.27,6.72 11.55,7.49 27.95,16.45 30.09,16.45 0.76,0 6.72,2.5 13.24,5.56 20.79,9.75 27.09,12.48 36.91,16.03 5.29,1.91 10.42,4.44 11.4,5.62 0.97,1.18 2.9,2.15 4.27,2.15 1.37,0 5.98,1.66 10.24,3.7 4.26,2.04 11.57,5.26 16.24,7.16 4.68,1.89 11.98,5.03 16.22,6.95 18.65,8.46 106.56,47.25 138.28,61.02 35.13,15.25 58.56,25.52 70.15,30.78 3.48,1.57 18.5,8.21 33.37,14.74 14.87,6.53 35.38,15.57 45.58,20.09 10.2,4.53 30.01,13.23 44.03,19.34 14.02,6.1 28.28,12.36 31.67,13.89 17.08,7.69 42.51,18.89 79.57,35.03 22.52,9.81 49.29,21.49 59.49,25.98 10.2,4.48 22.36,9.73 27.03,11.68 4.68,1.94 9.16,4.11 9.97,4.82 3.84,3.38 15.2,1.12 31.4,-6.23 9.12,-4.12 27.18,-12.12 40.14,-17.76 12.95,-5.64 34.16,-14.87 47.12,-20.51 12.96,-5.64 31.76,-13.98 41.8,-18.54 10.02,-4.56 18.5,-8.29 18.81,-8.29 0.32,0 5.33,-2.14 11.12,-4.76 5.8,-2.62 13.32,-6.01 16.72,-7.55 3.4,-1.53 10.54,-4.62 15.88,-6.86 5.34,-2.25 14.36,-6.21 20.05,-8.82 5.68,-2.6 16.61,-7.36 24.28,-10.58 7.67,-3.22 32.37,-14 54.89,-23.96 48.35,-21.39 67.74,-29.9 145.23,-63.76 31.73,-13.85 68.14,-29.92 78.03,-34.41 5.1,-2.33 16.22,-7.17 24.72,-10.78 8.5,-3.61 18.93,-8.33 23.18,-10.49 4.24,-2.15 13.98,-6.51 21.62,-9.68 46.7,-19.36 61.45,-26.23 74.15,-34.54 4.26,-2.79 10.17,-6.39 13.15,-8.01 67.56,-36.81 132.52,-133.44 149.72,-222.72 6.7,-34.77 6.56,-14.47 6.04,-931.65l-0.49 -876.39 97.34 -0.41c53.53,-0.23 -344.16,-0.42 -883.75,-0.43 -539.6,-0.01 -965.62,0.18 -946.71,0.43l0 0zm1627.29 926.54c0,715.69 -0.29,821.76 -2.3,837.04 -9.97,76.07 -56.05,146.73 -121.47,186.24 -14.47,8.74 -17.89,10.36 -70.13,33.15 -19.55,8.53 -39.71,17.41 -44.81,19.74 -14.16,6.47 -21.37,9.71 -44.03,19.75 -11.47,5.08 -25.73,11.5 -31.67,14.26 -5.95,2.75 -12.56,5.56 -14.68,6.25 -5.41,1.73 -41.01,17.77 -49.65,22.37 -3.94,2.1 -8.5,3.81 -10.12,3.81 -1.63,0 -3.62,0.62 -4.43,1.38 -0.8,0.76 -23.71,11.25 -50.91,23.31 -60.67,26.91 -56.52,25.06 -69.24,30.81 -5.8,2.62 -10.79,4.76 -11.1,4.76 -0.62,0 -109.94,48.51 -125.63,55.75 -5.38,2.48 -10.05,4.51 -10.39,4.51 -0.35,0 -4.29,1.71 -8.78,3.8 -15.76,7.34 -65.37,28.94 -70.05,30.5 -4.72,1.57 -16.62,-2.99 -63.67,-24.41 -4.48,-2.03 -12.48,-5.53 -17.77,-7.76 -5.29,-2.22 -14.71,-6.39 -20.93,-9.27 -6.23,-2.87 -11.55,-5.22 -11.83,-5.22 -0.27,0 -6.3,-2.69 -13.4,-5.98 -7.1,-3.28 -21.94,-9.98 -32.98,-14.87 -11.05,-4.9 -24.48,-10.9 -29.85,-13.34 -5.37,-2.44 -10.02,-4.44 -10.32,-4.44 -0.3,0 -5.64,-2.34 -11.87,-5.19 -6.22,-2.86 -18.96,-8.51 -28.31,-12.55 -9.34,-4.04 -22.79,-10.05 -29.89,-13.35 -7.1,-3.29 -13.42,-5.99 -14.06,-5.99 -0.64,0 -8.75,-3.53 -18.01,-7.84 -9.26,-4.31 -20.31,-9.45 -24.56,-11.43 -4.24,-1.98 -9.46,-4.08 -11.58,-4.68 -2.13,-0.6 -6.81,-2.71 -10.42,-4.67 -6.22,-3.41 -45.96,-20.82 -47.51,-20.82 -0.39,0 -6.82,-2.84 -14.27,-6.32 -7.45,-3.47 -15.63,-7.2 -18.19,-8.27 -15.04,-6.33 -21.69,-9.49 -22.14,-10.52 -0.29,-0.63 -1.41,-1.15 -2.49,-1.15 -2.01,0 -26.05,-10.55 -33.54,-14.72 -2.26,-1.26 -4.84,-2.28 -5.75,-2.28 -0.9,0 -9.71,-3.82 -19.58,-8.5 -9.87,-4.67 -18.49,-8.49 -19.17,-8.49 -1.38,0 -13.52,-5.5 -17.07,-7.73 -1.27,-0.81 -13.06,-6.05 -26.19,-11.65 -45.8,-19.55 -59.2,-27.21 -82.73,-47.24 -47.56,-40.5 -78.01,-96.95 -86.59,-160.5 -1.87,-13.83 -2.19,-137.53 -2.22,-837.01l-0.03 -820.79 743.16 0 743.15 0 0 819.55 0 0zm-772.23 -716.22c-26.98,32.42 -48.62,78.27 -58.05,123.01 -8.76,41.57 -6.95,108.19 9.03,332.18 11.06,155.02 11.81,259.72 2.35,324.46 -4.79,32.7 -5.68,37.63 -13.92,77.24 -8.57,41.17 -32.31,118.18 -56.66,183.86 -14.68,39.57 -26.02,63.66 -64.4,136.73l-10.14 19.32 -5.83 -0.38c-5.75,-0.38 -33.4,-5.9 -52.95,-10.58 -111.15,-26.62 -93.32,-186.29 20.86,-186.7 21.17,-0.08 20.71,0.18 19.09,-10.57 -0.67,-4.44 -2.27,-17.11 -3.55,-28.16 -3.35,-28.73 -5.78,-49.18 -15.54,-130.55 -2.09,-17.42 -8,-67.48 -13.14,-111.24 -11.8,-100.45 -16.71,-141.46 -17.79,-148.32 -24.74,-157.47 -108.6,-297 -235.11,-391.11 -31.68,-23.57 -66.94,-45.5 -70.79,-44.03 -2.55,0.98 -3.58,1385.56 -1.04,1389.56 0.96,1.51 35.53,2.01 160.97,2.32l159.75 0.39 3.47 16.22c10.19,47.71 36.37,114.9 58.21,149.45 2.27,3.6 4.13,6.91 4.13,7.37 0,1.3 22.15,35.25 24.72,37.89 1.28,1.31 4.75,5.7 7.73,9.75 19.93,27.16 58.2,67.77 80.34,85.25 6.37,5.03 14.72,11.82 18.54,15.09 3.82,3.27 7.65,6.42 8.51,7.01 15.42,10.49 26.51,22.29 40.55,43.16 10.25,15.25 9.38,15.09 16.9,3.09 10.64,-16.96 24.2,-30.96 50.91,-52.58 14.32,-11.59 32.9,-27.71 41.28,-35.81 8.38,-8.11 15.76,-14.74 16.4,-14.74 0.64,0 2.94,-2.61 5.1,-5.8 2.17,-3.18 8,-10.06 12.96,-15.28 48.54,-51.14 96.73,-142.55 114.71,-217.62 1.83,-7.65 4.08,-17.04 4.99,-20.86 0.91,-3.82 1.98,-8.17 2.37,-9.66 0.67,-2.55 9.61,-2.7 160.35,-2.7 144.15,0 159.73,-0.24 160.58,-2.44 2.15,-5.62 1.02,-1388.14 -1.13,-1388.97 -2.19,-0.83 -25.43,12.34 -45.51,25.8 -149.72,100.37 -246.12,261.37 -264.48,441.69 -0.82,8.07 -2.52,23.37 -3.78,33.99 -7.11,59.87 -9.2,77.32 -13.97,116.26 -1.32,10.83 -3.47,28.56 -4.78,39.4 -3.04,25.24 -4.62,38.31 -7.52,62.19 -1.29,10.62 -3.09,25.57 -3.99,33.22 -2.4,20.31 -9.05,75.3 -10.82,89.46 -0.84,6.72 -1.53,14.38 -1.53,17l0 4.77 19.7 0.09c95.45,0.43 132.35,122.96 52.26,173.54 -14.29,9.02 -28.79,13.7 -60.37,19.49 -5.95,1.08 -14.88,2.8 -19.85,3.8 -4.97,1.01 -9.21,1.61 -9.41,1.34 -2,-2.61 -24.85,-45.8 -37.99,-71.78 -16.59,-32.81 -28.56,-61.15 -45.6,-107.93 -35.33,-97.03 -54.36,-173.07 -65.15,-260.34 -4.99,-40.33 -2.94,-201.52 3.43,-270.38 0.43,-4.67 1.46,-19.97 2.3,-33.98 0.84,-14.03 2.55,-40.45 3.81,-58.72 18.29,-264.54 12.76,-306.89 -51.28,-392.04 -10.17,-13.52 -10.7,-13.58 -20.23,-2.12l0 0zm-453.17 359.28c42.01,55.75 73.54,122.49 87.67,185.52 7.12,31.8 7.35,33.21 12.32,74.94 1.26,10.62 3.31,27.83 4.56,38.24 1.24,10.4 3.25,27.44 4.47,37.85 2.43,20.75 3.08,26.2 15.63,130.94 4.73,39.51 8.99,77.06 9.47,83.43l0.88 11.59 -6.76 3.27c-35.34,17.15 -71.07,59.44 -87.9,104.02l-5.58 14.76 -25.39 0 -25.39 0 -0.4 -352.12 -0.38 -352.12 3.11 2.83c1.72,1.55 7.88,9.13 13.69,16.85l0 0zm940.73 332.68l-0.39 351.88 -25.4 0 -25.4 0 -4.07 -11.58c-15.71,-44.69 -62.07,-99.21 -92.58,-108.9 -2.72,-0.86 -3.88,-3.26 -3.45,-7.12 0.05,-0.5 0.83,-7.8 1.73,-16.22 0.89,-8.42 2.7,-24.01 4.01,-34.63 1.32,-10.62 3.41,-27.83 4.65,-38.23 1.24,-10.41 3.3,-27.62 4.58,-38.24 1.27,-10.62 3.33,-27.83 4.57,-38.25 1.25,-10.4 2.62,-21.35 3.05,-24.33 0.43,-2.97 1.85,-14.79 3.15,-26.26 1.3,-11.48 3.39,-29.2 4.64,-39.4 1.25,-10.2 3.69,-30.36 5.43,-44.81 12.96,-107.72 41.85,-180.59 104.58,-263.72 4.93,-6.54 9.49,-11.92 10.13,-11.98 0.63,-0.04 0.98,158.26 0.77,351.79l0 0zm-471.74 317.5c3.21,9.57 7.43,21.56 9.39,26.66 12.26,31.89 24.39,61.97 29.2,72.38 3.06,6.62 5.56,12.29 5.56,12.59 0,1.75 27.37,56.59 34.61,69.34 4.76,8.4 8.65,15.53 8.65,15.87 0,0.33 1.79,3.43 3.98,6.89 4.81,7.63 4.2,9.76 -3.48,12.25 -24.78,8.07 -54.87,27.09 -78.4,49.55l-16.38 15.65 -16.67 -16.11c-22.75,-21.98 -45.52,-36.68 -73.67,-47.59 -5.1,-1.97 -9.87,-4.11 -10.6,-4.75 -0.73,-0.64 4.72,-12.17 12.12,-25.63 32.5,-59.19 66.34,-136.72 84.36,-193.28 4.55,-14.31 4.43,-14.37 11.33,6.18l0 0zm-433.78 134.42c0.66,1.06 2.79,6.66 4.74,12.44 23.4,69.35 75.38,110.97 162.55,130.17 12.63,2.79 13.33,3.53 11.15,11.81 -8.92,33.86 -15.67,82.37 -15.68,112.74 0,7.37 -0.43,14.49 -0.95,15.84 -0.98,2.57 -178.15,3.82 -203.39,1.44l-10.43 -0.99 0 -141.66c0,-77.91 0.47,-142.13 1.03,-142.69 2.02,-2.02 49.69,-1.17 50.98,0.9l0 0zm905.13 141.76l0 142.91 -105.83 0 -105.84 0 -1.14 -14.68c-3.73,-47.98 -7.73,-77.21 -14.49,-105.83 -4.77,-20.22 -7.51,-17.44 24.9,-25.31 24.47,-5.95 31.15,-8.17 46.56,-15.52 47.43,-22.64 85.07,-64.67 100.76,-112.54 1.75,-5.33 3.6,-10.38 4.13,-11.24 0.61,-0.97 10.37,-1.39 25.96,-1.13l24.99 0.42 0 142.92 0 0zm-613.37 29.67c44.52,11.18 79.42,53.26 86.4,104.17 1.39,10.19 3.07,9.93 -60.32,9.48l-56.98 -0.41 0.3 -17.77c0.29,-16.65 3.6,-47.06 6.67,-61.02 0.74,-3.41 2.49,-11.4 3.88,-17.77 4.77,-21.84 3.54,-20.83 20.05,-16.68l0 0zm287.32 4.7c7.14,24.67 12.8,60.3 14.24,89.61l0.97 19.7 -59.18 0 -59.18 0 0.99 -11.66c4.02,-47.56 40.52,-89.99 89.08,-103.54 10.41,-2.91 10.55,-2.85 13.08,5.89l0 0zm-201.03 220.79c1.51,21.33 1.21,182.08 -0.35,182.08 -1.92,0 -11.6,-10.8 -24.97,-27.84 -36.81,-46.93 -62.99,-98.85 -77.84,-154.3l-3.77 -14.08 52.96 0 52.97 0 1 14.14 0 0zm203.4 -11.41c0,6.81 -10.67,40.51 -20.43,64.47 -16.89,41.51 -47.39,90.15 -75.09,119.74l-9.4 10.05 -0.07 -98.5 -0.07 -98.49 52.53 0c49.23,0 52.53,0.17 52.53,2.73z"/>
    </g>
   </g>
  </g>
 </g>
</svg>
