<svg width="185" height="42" viewBox="0 0 185 42" fill="none" xmlns="http://www.w3.org/2000/svg">
<path fill-rule="evenodd" clip-rule="evenodd" d="M6.28333 22.0997C6.28333 18.6331 3.46667 15.8164 0 15.8164V32.8247H0.033808L14.7328 41.3115L14.7349 41.3078L14.7369 41.3112L29.4355 32.8247H29.4667V15.8164C26 15.8164 23.1833 18.6331 23.1833 22.0997V29.1793L14.7347 34.0573L6.28333 29.1778V22.0997Z" fill="#FFD700"/>
<path fill-rule="evenodd" clip-rule="evenodd" d="M8.4502 0V5.655L11.5918 7.4687V26.9427L14.7551 28.7735L17.8751 26.9752V7.4687L21.0167 5.655V0C17.659 0 14.9111 2.64242 14.7417 5.9585H14.7253C14.5559 2.64242 11.8079 0 8.4502 0Z" fill="#0C5FAE"/>
<path d="M59.404 13.6547C59.404 14.7667 59.008 15.6427 58.216 16.2827C57.432 16.9147 56.332 17.2507 54.916 17.2907V18.1547H54.088V17.2907C52.672 17.2427 51.568 16.9027 50.776 16.2707C49.992 15.6387 49.6 14.7667 49.6 13.6547C49.6 12.5427 49.992 11.6707 50.776 11.0387C51.568 10.4067 52.672 10.0667 54.088 10.0187V9.1787H54.916V10.0187C56.324 10.0667 57.424 10.4107 58.216 11.0507C59.008 11.6827 59.404 12.5507 59.404 13.6547ZM54.916 16.5827C56.076 16.5347 56.972 16.2587 57.604 15.7547C58.236 15.2507 58.552 14.5507 58.552 13.6547C58.552 12.7587 58.232 12.0587 57.592 11.5547C56.96 11.0507 56.068 10.7787 54.916 10.7387V16.5827ZM50.452 13.6547C50.452 14.5507 50.768 15.2507 51.4 15.7547C52.04 16.2507 52.936 16.5267 54.088 16.5827V10.7387C52.92 10.7867 52.02 11.0627 51.388 11.5667C50.764 12.0627 50.452 12.7587 50.452 13.6547ZM65.7039 17.9387C64.8719 17.9387 64.1159 17.7547 63.4359 17.3867C62.7639 17.0107 62.2359 16.4987 61.8519 15.8507C61.4759 15.2027 61.2879 14.4747 61.2879 13.6667C61.2879 12.8587 61.4759 12.1307 61.8519 11.4827C62.2359 10.8347 62.7639 10.3267 63.4359 9.9587C64.1159 9.5827 64.8719 9.3947 65.7039 9.3947C66.5359 9.3947 67.2839 9.5787 67.9479 9.9467C68.6199 10.3147 69.1479 10.8267 69.5319 11.4827C69.9159 12.1307 70.1079 12.8587 70.1079 13.6667C70.1079 14.4747 69.9159 15.2067 69.5319 15.8627C69.1479 16.5107 68.6199 17.0187 67.9479 17.3867C67.2839 17.7547 66.5359 17.9387 65.7039 17.9387ZM65.7039 17.1467C66.3679 17.1467 66.9679 16.9987 67.5039 16.7027C68.0399 16.3987 68.4599 15.9827 68.7639 15.4547C69.0679 14.9187 69.2199 14.3227 69.2199 13.6667C69.2199 13.0107 69.0679 12.4187 68.7639 11.8907C68.4599 11.3547 68.0399 10.9387 67.5039 10.6427C66.9679 10.3387 66.3679 10.1867 65.7039 10.1867C65.0399 10.1867 64.4359 10.3387 63.8919 10.6427C63.3559 10.9387 62.9319 11.3547 62.6199 11.8907C62.3159 12.4187 62.1639 13.0107 62.1639 13.6667C62.1639 14.3227 62.3159 14.9187 62.6199 15.4547C62.9319 15.9827 63.3559 16.3987 63.8919 16.7027C64.4359 16.9987 65.0399 17.1467 65.7039 17.1467ZM79.8469 9.4667V17.8667H78.9709V13.9907H73.7149V17.8667H72.8269V9.4667H73.7149V13.2107H78.9709V9.4667H79.8469ZM90.8695 17.0987V19.7507H90.0415V17.8667H82.7095L82.6975 19.7507H81.8695L81.8815 17.0987H82.3015C82.8535 17.0667 83.2375 16.6307 83.4535 15.7907C83.6695 14.9427 83.8015 13.7427 83.8495 12.1907L83.9455 9.4667H89.6095V17.0987H90.8695ZM84.6415 12.2747C84.6015 13.5547 84.5015 14.6107 84.3415 15.4427C84.1895 16.2667 83.9295 16.8187 83.5615 17.0987H88.7335V10.2347H84.7135L84.6415 12.2747ZM104.089 9.4667V17.8667H103.213V10.2347H97.8975V17.8667H97.0215V9.4667H104.089ZM112.9 15.6227H108.22L107.212 17.8667H106.288L110.128 9.4667H111.004L114.844 17.8667H113.908L112.9 15.6227ZM112.576 14.9027L110.56 10.3907L108.544 14.9027H112.576ZM125.777 9.4667V17.8667H124.925V11.1467L121.625 16.7987H121.205L117.905 11.1827V17.8667H117.053V9.4667H117.785L121.433 15.6947L125.045 9.4667H125.777ZM129.076 8.9027C129.26 8.9027 129.412 8.9667 129.532 9.0947C129.652 9.2147 129.712 9.3667 129.712 9.5507C129.712 9.6467 129.696 9.7507 129.664 9.8627C129.64 9.9667 129.604 10.0907 129.556 10.2347L129.04 11.8907H128.464L128.884 10.1627C128.748 10.1227 128.64 10.0507 128.56 9.9467C128.48 9.8347 128.44 9.7027 128.44 9.5507C128.44 9.3587 128.5 9.2027 128.62 9.0827C128.74 8.9627 128.892 8.9027 129.076 8.9027ZM138.397 9.4667V17.8667H137.521V15.3227H135.013C134.901 15.3227 134.741 15.3147 134.533 15.2987L132.769 17.8667H131.821L133.729 15.1427C133.113 14.9587 132.641 14.6347 132.313 14.1707C131.985 13.6987 131.821 13.1227 131.821 12.4427C131.821 11.4987 132.117 10.7667 132.709 10.2467C133.309 9.7267 134.117 9.4667 135.133 9.4667H138.397ZM132.709 12.4187C132.709 13.1067 132.909 13.6387 133.309 14.0147C133.717 14.3827 134.309 14.5667 135.085 14.5667H137.521V10.2347H135.169C134.385 10.2347 133.777 10.4227 133.345 10.7987C132.921 11.1667 132.709 11.7067 132.709 12.4187ZM147.33 10.2347H144.378V17.8667H143.502V10.2347H140.55V9.4667H147.33V10.2347ZM149.489 9.4667H150.365V17.8667H149.489V9.4667ZM53.68 24.4667H50.044V32.8667H51.988V30.5507H53.68C55.924 30.5507 57.328 29.3867 57.328 27.5147C57.328 25.6307 55.924 24.4667 53.68 24.4667ZM53.572 28.9667H51.988V26.0507H53.572C54.76 26.0507 55.36 26.5907 55.36 27.5147C55.36 28.4267 54.76 28.9667 53.572 28.9667ZM63.3356 33.0107C65.9756 33.0107 67.9316 31.1747 67.9316 28.6667C67.9316 26.1587 65.9756 24.3227 63.3356 24.3227C60.6836 24.3227 58.7396 26.1707 58.7396 28.6667C58.7396 31.1627 60.6836 33.0107 63.3356 33.0107ZM63.3356 31.3547C61.8356 31.3547 60.7076 30.2627 60.7076 28.6667C60.7076 27.0707 61.8356 25.9787 63.3356 25.9787C64.8356 25.9787 65.9636 27.0707 65.9636 28.6667C65.9636 30.2627 64.8356 31.3547 63.3356 31.3547ZM74.0012 33.0107C75.4652 33.0107 76.6772 32.4827 77.4692 31.5107L76.2212 30.3587C75.6572 31.0187 74.9492 31.3547 74.1092 31.3547C72.5372 31.3547 71.4212 30.2507 71.4212 28.6667C71.4212 27.0827 72.5372 25.9787 74.1092 25.9787C74.9492 25.9787 75.6572 26.3147 76.2212 26.9627L77.4692 25.8107C76.6772 24.8507 75.4652 24.3227 74.0132 24.3227C71.3972 24.3227 69.4532 26.1347 69.4532 28.6667C69.4532 31.1987 71.3972 33.0107 74.0012 33.0107ZM79.2882 32.8667H81.2322V24.4667H79.2882V32.8667ZM87.7497 23.9267C89.3217 23.9267 90.0657 23.2667 90.0777 22.0907H88.7457C88.7337 22.6667 88.3857 22.9667 87.7497 22.9667C87.0897 22.9667 86.7657 22.6667 86.7537 22.0907H85.4217C85.4337 23.2667 86.1537 23.9267 87.7497 23.9267ZM83.8737 32.8667H85.7097L89.7177 27.4067V32.8667H91.6377V24.4667H89.8137L85.8057 29.9387V24.4667H83.8737V32.8667ZM98.3012 33.0107C99.7652 33.0107 100.977 32.4827 101.769 31.5107L100.521 30.3587C99.9572 31.0187 99.2492 31.3547 98.4092 31.3547C96.8372 31.3547 95.7212 30.2507 95.7212 28.6667C95.7212 27.0827 96.8372 25.9787 98.4092 25.9787C99.2492 25.9787 99.9572 26.3147 100.521 26.9627L101.769 25.8107C100.977 24.8507 99.7652 24.3227 98.3132 24.3227C95.6972 24.3227 93.7532 26.1347 93.7532 28.6667C93.7532 31.1987 95.6972 33.0107 98.3012 33.0107ZM109.072 32.8667H111.28L108.448 28.5227L111.196 24.4667H109.144L106.936 27.8627H105.544V24.4667H103.612V32.8667H105.544V29.4827H106.888L109.072 32.8667ZM116.764 33.0107C119.404 33.0107 121.36 31.1747 121.36 28.6667C121.36 26.1587 119.404 24.3227 116.764 24.3227C114.112 24.3227 112.168 26.1707 112.168 28.6667C112.168 31.1627 114.112 33.0107 116.764 33.0107ZM116.764 31.3547C115.264 31.3547 114.136 30.2627 114.136 28.6667C114.136 27.0707 115.264 25.9787 116.764 25.9787C118.264 25.9787 119.392 27.0707 119.392 28.6667C119.392 30.2627 118.264 31.3547 116.764 31.3547ZM123.169 23.7227C123.637 23.7227 123.997 23.3867 123.997 22.8947C123.997 22.4027 123.637 22.0667 123.169 22.0667C122.701 22.0667 122.329 22.4027 122.329 22.8947C122.329 23.3867 122.701 23.7227 123.169 23.7227ZM125.593 23.7227C126.061 23.7227 126.433 23.3867 126.433 22.8947C126.433 22.4027 126.061 22.0667 125.593 22.0667C125.137 22.0667 124.765 22.4027 124.765 22.8947C124.765 23.3867 125.137 23.7227 125.593 23.7227ZM123.409 32.8667H125.353V24.4667H123.409V32.8667ZM138.425 32.8667H140.465L136.709 24.4667H134.789L131.045 32.8667H133.037L133.781 31.0667H137.681L138.425 32.8667ZM134.405 29.5907L135.737 26.3747L137.069 29.5907H134.405ZM148.107 24.4667H142.179V32.8667H144.111L144.099 26.0507H148.095L148.107 24.4667ZM153.528 24.4667H149.892V32.8667H151.836V30.5507H153.528C155.772 30.5507 157.176 29.3867 157.176 27.5147C157.176 25.6307 155.772 24.4667 153.528 24.4667ZM153.42 28.9667H151.836V26.0507H153.42C154.608 26.0507 155.208 26.5907 155.208 27.5147C155.208 28.4267 154.608 28.9667 153.42 28.9667ZM160.991 31.3067V29.3627H164.891V27.8507H160.991V26.0267H165.407V24.4667H159.059V32.8667H165.563V31.3067H160.991ZM171.682 33.0107C173.146 33.0107 174.358 32.4827 175.15 31.5107L173.902 30.3587C173.338 31.0187 172.63 31.3547 171.79 31.3547C170.218 31.3547 169.102 30.2507 169.102 28.6667C169.102 27.0827 170.218 25.9787 171.79 25.9787C172.63 25.9787 173.338 26.3147 173.902 26.9627L175.15 25.8107C174.358 24.8507 173.146 24.3227 171.694 24.3227C169.078 24.3227 167.134 26.1347 167.134 28.6667C167.134 31.1987 169.078 33.0107 171.682 33.0107ZM177.017 32.8667H178.949V24.4667H177.017V32.8667ZM181.348 23.7227C181.816 23.7227 182.176 23.3867 182.176 22.8947C182.176 22.4027 181.816 22.0667 181.348 22.0667C180.88 22.0667 180.508 22.4027 180.508 22.8947C180.508 23.3867 180.88 23.7227 181.348 23.7227ZM183.772 23.7227C184.24 23.7227 184.612 23.3867 184.612 22.8947C184.612 22.4027 184.24 22.0667 183.772 22.0667C183.316 22.0667 182.944 22.4027 182.944 22.8947C182.944 23.3867 183.316 23.7227 183.772 23.7227ZM181.588 32.8667H183.532V24.4667H181.588V32.8667Z" fill="white"/>
</svg>
